<?xml version="1.0" encoding="UTF-8" standalone="no"?>
<!-- Created with Inkscape (http://www.inkscape.org/) -->

<svg
   width="135.46666mm"
   height="135.46666mm"
   viewBox="0 0 135.46666 135.46666"
   version="1.1"
   id="svg5"
   inkscape:version="1.1.1 (3bf5ae0d25, 2021-09-20)"
   sodipodi:docname="logo-inkscape-src.svg"
   xmlns:inkscape="http://www.inkscape.org/namespaces/inkscape"
   xmlns:sodipodi="http://sodipodi.sourceforge.net/DTD/sodipodi-0.dtd"
   xmlns:xlink="http://www.w3.org/1999/xlink"
   xmlns="http://www.w3.org/2000/svg"
   xmlns:svg="http://www.w3.org/2000/svg">
  <sodipodi:namedview
     id="namedview7"
     pagecolor="#ffffff"
     bordercolor="#666666"
     borderopacity="1.0"
     inkscape:pageshadow="2"
     inkscape:pageopacity="0.0"
     inkscape:pagecheckerboard="false"
     inkscape:document-units="mm"
     showgrid="false"
     inkscape:zoom="0.77682379"
     inkscape:cx="-112.63816"
     inkscape:cy="340.48906"
     inkscape:window-width="1858"
     inkscape:window-height="1057"
     inkscape:window-x="54"
     inkscape:window-y="-8"
     inkscape:window-maximized="1"
     inkscape:current-layer="layer1"
     fit-margin-top="0"
     fit-margin-left="0"
     fit-margin-right="0"
     fit-margin-bottom="0" />
  <defs
     id="defs2">
    <linearGradient
       inkscape:collect="always"
       id="linearGradient68">
      <stop
         style="stop-color:#ff31fd;stop-opacity:1"
         offset="0"
         id="stop64" />
      <stop
         style="stop-color:#00a7fd;stop-opacity:0.55645162"
         offset="1"
         id="stop66" />
    </linearGradient>
    <linearGradient
       inkscape:collect="always"
       xlink:href="#linearGradient68"
       id="linearGradient70"
       x1="35.762615"
       y1="54.495415"
       x2="173.36353"
       y2="192.43692"
       gradientUnits="userSpaceOnUse" />
  </defs>
  <g
     inkscape:label="Layer 1"
     inkscape:groupmode="layer"
     id="layer1"
     transform="translate(-37.170335,-58.627904)">
    <path
       fill="currentColor"
       d="m 104.90367,58.627904 c -37.412085,0 -67.733335,26.537708 -67.733335,59.266666 0,18.54729 9.763125,35.08375 25.003125,45.95812 2.54,1.82563 4.021667,4.78896 3.571875,7.91104 l -2.487083,17.51542 c -0.370417,2.54 1.5875,4.81542 4.153958,4.81542 H 87.970335 V 179.2779 c 0,-1.16417 0.9525,-2.11667 2.116667,-2.11667 h 4.233333 c 1.164167,0 2.116667,0.9525 2.116667,2.11667 v 14.81667 H 113.37033 V 179.2779 c 0,-1.16417 0.9525,-2.11667 2.11667,-2.11667 h 4.23333 c 1.16417,0 2.11667,0.9525 2.11667,2.11667 v 14.81667 h 20.55812 c 2.56646,0 4.52438,-2.27542 4.15396,-4.81542 L 144.062,171.76373 c -0.4498,-3.09562 1.00541,-6.08541 3.57187,-7.91104 15.24,-10.87437 25.00313,-27.41083 25.00313,-45.95812 0,-32.728958 -30.32125,-59.266666 -67.73333,-59.266666 z M 79.503668,143.29457 c -9.339791,0 -16.933333,-7.59355 -16.933333,-16.93334 0,-9.33978 7.593542,-16.93333 16.933333,-16.93333 9.339792,0 16.933334,7.59355 16.933334,16.93333 0,9.33979 -7.593542,16.93334 -16.933334,16.93334 z m 50.800002,0 c -9.33979,0 -16.93334,-7.59355 -16.93334,-16.93334 0,-9.33978 7.59355,-16.93333 16.93334,-16.93333 9.33978,0 16.93333,7.59355 16.93333,16.93333 0,9.33979 -7.59355,16.93334 -16.93333,16.93334 z"
       id="path25"
       style="fill:url(#linearGradient70);fill-opacity:1;stroke-width:0.264583" />
  </g>
</svg>
